<?xml version="1.0" encoding="utf-8"?>
<!-- Generator: Adobe Illustrator 24.0.0, SVG Export Plug-In . SVG Version: 6.00 Build 0)  -->
<svg version="1.1" id="Center_2_copy" xmlns="http://www.w3.org/2000/svg" xmlns:xlink="http://www.w3.org/1999/xlink" x="0px"
	 y="0px" viewBox="0 0 299 300" style="enable-background:new 0 0 299 300;" xml:space="preserve">
<g>
	<path d="M149.5,0C66.79,0-0.5,67.29-0.5,150s67.29,150,150,150c82.71,0,150-67.29,150-150S232.21,0,149.5,0z M149.5,287.4
		c-75.76,0-137.4-61.64-137.4-137.4S73.74,12.6,149.5,12.6c75.76,0,137.4,61.64,137.4,137.4S225.26,287.4,149.5,287.4z"/>
	<g>
		<path d="M233.81,99.32l-1-1.09l-1.61-1.51l-0.06-1.31l-0.36-0.11c-0.34-0.1-3.35-0.97-4.89-0.43c-0.75,0.27-0.75,0.27-0.94,0.36
			c-0.17,0.08-0.51,0.25-1.87,0.83c-1.53,0.65-4.39,0.97-7.17,1.28c-2.11,0.24-4.11,0.46-5.61,0.82c-3.51,0.85-8.83,4.12-14.24,8.75
			c-3.49,2.99-12.75,7.88-19.51,11.45c-3.25,1.72-5.81,3.07-6.91,3.77c-0.01,0.01-1.34,0.74-3.24,1.27c-1.12,0.32-1.86,1-1.97,1.83
			c-0.09,0.64,0.23,1.25,0.82,1.54c0.34,0.17,1.22,0.25,3.29,0.42l1.15,0.1c2.58,0.22,17.92-2.24,27.39-3.89
			c1.9-0.33,3.56-0.63,4.83-0.86c8.86-1.64,15.98-6.73,16.27-6.95l0.01-0.01c0.17-0.09,0.67-0.36,2.03-1.08
			c0.73-0.38,1.07-0.36,1.58-0.33c0.21,0.01,0.42,0.03,0.67,0.02c0.96-0.03,1.81,0.05,1.85,0.05l1.85,0.08l0.16-0.1
			c0.06-0.04,1.5-0.97,2.43-2.49c0.4-0.65,1.12-1.76,1.98-3.07c1.01-1.55,2.21-3.38,3.29-5.09
			C235.54,101.2,233.87,99.39,233.81,99.32z"/>
		<path d="M201.07,142.88c-5.81-2.41-22.99-3.68-30.72-1.64c-11.8,3.13-26.95,7.83-32.6,11.22l0-0.05
			c0.16-1.79,0.66-12.89,0.81-16.95c0.1-2.85-0.12-11.62-0.33-18.69c16.33-1.27,31.28-4.38,41.1-8.56
			c25.08-10.68,42.66-24.48,42.83-24.62l1.5-2.56l0.35-2.66c0.23-0.59,1.91-4.93,3.12-6.92c1.49-2.46-0.05-5.17-0.11-5.29L226.9,66
			l-3.08-1.26l-5.99-0.37l-1.43-0.15l-2.67-0.86l-4.91-0.34c-0.01,0-1.29-0.01-2.87-0.55c-1.1-0.38-1.75-0.72-2.22-0.97
			c-0.87-0.46-1.34-0.67-2.51-0.21L199.33,62l-1.77,9.42c-0.51,0.74-4.28,5.95-12.94,12.28c-8.54,6.25-23.67,14.85-47.39,20.52
			c0.01-1.29,0.08-3.93,0.13-5.97c0.06-2.32,0.08-3.21,0.07-3.3l0.57-15.53c0.28-7.7,2.54-24.87,3.55-28.26l4.22-14.08l-8.4,12.2
			c-0.38,0.54-3.73,5.33-6.01,7.24c-2.93,2.45-13.12,14.78-14.16,17.13c-1.06,2.39-2.36,10.98-2.11,13.92
			c0.12,1.44-0.52,7.36-1.17,12.42l-0.06,0.43l-0.27,0.04c-0.3,0.04-0.61,0.08-0.9,0.12c-0.43,0.03-0.86,0.06-1.26,0.08
			c-14.23,0.52-17.27-0.12-17.92-0.43c0.44-1.16,1.13-3.65,0.08-5.71c-1.14-2.23-7.21-4.21-7.99-4.45l-6.5-0.9l-3.28,0.54L75.72,90
			c-0.91,2.26-2.03,6.51-2.05,6.63l-2.12,5.54l-3.05,3.56l-0.54,4.76l5.72,2.11c0.97,0.18,23.7,4.49,29.75,4.56
			c0.43,0,1.05,0.02,1.84,0.03c1.36,0.03,3.22,0.07,5.47,0.09c0.87,0.03,1.73,0.05,2.58,0.07l0.38,0.01
			c-0.02,2.23-0.06,5.64-0.07,5.85c-0.09,0.92-0.14,4.72-0.21,11.92c-0.11,10.4-0.54,31.29-0.93,35.18
			c-3.14,3.02-17.2,17.01-24.73,32.67c-2.94,6.13-8.34,25.12-9.53,30.66c-0.88,4.06-0.98,6.03,0.73,6.96l0.54,0.35l-1.75,0.31
			l10.51,3.13l2.23,1.05l1.55-0.43c0.65,0.46,1.78,1.08,3.14,1.08c0.14,0,0.28-0.01,0.43-0.02c0.71-0.07,1.52-0.15,2.26-1.02
			c0.05-0.06,0.3-0.27,0.9-0.64c3.07-1.88,26.89-34.52,30.34-41.57c3.43-6.99,7.41-23.91,8.17-27.23l0.01-0.13
			c1.46-1.41,7.58-6.96,19.69-13.63c14.83-8.17,25.17-6.13,26.21-5.54c0.13,0.07,11.93,11.7,6.75,44.24
			c-3.06,19.25-11.84,27.43-18.71,30.93c-2.6,1.6-5.33,3-8.12,4.14l-1.48-0.83l-3.02-5.72l-1.12-7.53l-2.74-2.3l-2.57-0.53
			l-4.38,0.84l-1.07,3.64c-0.68,3.82-0.66,10.91,2.15,14.77c1.04,1.42,2.35,2.25,3.9,2.46l1.53,0.2c4.33,1.72,9.31,2.66,14.8,2.79
			c8.09,0.18,16.06-2.32,21.84-6.91c15.32-12.15,22.42-22.69,26.71-56.51C220.64,156.43,206.7,145.22,201.07,142.88z"/>
	</g>
</g>
</svg>
