<?xml version="1.0" encoding="utf-8"?>
<!-- Generator: Adobe Illustrator 24.0.0, SVG Export Plug-In . SVG Version: 6.00 Build 0)  -->
<svg version="1.1" id="Layer_1" xmlns="http://www.w3.org/2000/svg" xmlns:xlink="http://www.w3.org/1999/xlink" x="0px" y="0px"
	 viewBox="0 0 100 100" style="enable-background:new 0 0 100 100;" xml:space="preserve">
<style type="text/css">
	.st0{fill-rule:evenodd;clip-rule:evenodd;fill:#FFFFFF;}
</style>
<title>social_icons</title>
<path class="st0" d="M50.27,10C27.23,10,8.56,28.68,8.57,51.72c0,17.95,11.49,33.89,28.52,39.56c2.09,0.38,2.85-0.91,2.85-2
	s0-3.62-0.06-7.1c-11.6,2.52-14.05-5.59-14.05-5.59c-1.89-4.82-4.63-6.1-4.63-6.1c-3.78-2.59,0.29-2.53,0.29-2.53
	c4.18,0.29,6.39,4.29,6.39,4.29c3.72,6.38,9.76,4.54,12.13,3.47c0.2-2.11,1.14-4.09,2.65-5.58c-9.26-1-19-4.63-19-20.61
	c-0.05-4.15,1.51-8.16,4.34-11.2c-0.43-1-1.86-5.29,0.41-11c0,0,3.5-1.13,11.46,4.27c6.84-1.87,14.05-1.87,20.89,0
	c8-5.4,11.45-4.27,11.45-4.27c2.28,5.74,0.85,10,0.42,11c2.81,3.04,4.34,7.05,4.28,11.19c0,16-9.75,19.55-19,20.58
	c1.5,1.29,2.83,3.83,2.83,7.72c0,5.58,0,10.08,0,11.45c0,1.11,0.75,2.41,2.87,2c21.85-7.3,33.64-30.93,26.34-52.78
	C84.25,21.43,68.26,9.95,50.27,10z"/>
</svg>
