<svg id="Layer_1" data-name="Layer 1" xmlns="http://www.w3.org/2000/svg" viewBox="0 0 100 100"><title>social_icons</title><path id="Path_78" data-name="Path 78" d="M88.85,14.26H11.24A10.29,10.29,0,0,0,1,24.53V79.32A10.29,10.29,0,0,0,11.24,89.59H88.85A10.29,10.29,0,0,0,99.12,79.32V24.53A10.28,10.28,0,0,0,88.85,14.26Zm0,68.48H11.24a3.42,3.42,0,0,1-3.42-3.42h0V30.6L50.09,57.51,92.28,29.09V79.32a3.42,3.42,0,0,1-3.42,3.42ZM11.24,21.11H88.85a3.47,3.47,0,0,1,2.2.79L50,49.55,8.21,23A3.41,3.41,0,0,1,11.24,21.11Z"/></svg>