<?xml version="1.0" encoding="utf-8"?>
<!-- Generator: Adobe Illustrator 24.0.0, SVG Export Plug-In . SVG Version: 6.00 Build 0)  -->
<svg version="1.1" id="Layer_1" xmlns="http://www.w3.org/2000/svg" xmlns:xlink="http://www.w3.org/1999/xlink" x="0px" y="0px"
	 viewBox="0 0 100 100" style="enable-background:new 0 0 100 100;" xml:space="preserve">
<style type="text/css">
	.st0{fill:#FFFFFF;}
</style>
<title>social_icons</title>
<path class="st0" d="M31.7,91.35c36,0,55.61-29.79,55.61-55.61c0-0.85,0-1.69-0.06-2.53c3.83-2.77,7.13-6.19,9.75-10.12
	c-3.56,1.59-7.35,2.62-11.22,3.08c4.08-2.44,7.13-6.29,8.59-10.81c-3.82,2.27-8.01,3.87-12.37,4.74c-7.36-7.9-19.73-8.33-27.63-0.97
	c-3.98,3.71-6.23,8.9-6.22,14.34c0,1.5,0.17,3,0.5,4.46C32.94,37.14,18.3,29.72,8.37,17.51c-5.19,8.93-2.54,20.36,6.05,26.09
	c-3.1-0.09-6.14-0.93-8.85-2.45c0,0.08,0,0.17,0,0.25c0,9.3,6.55,17.31,15.67,19.16c-2.88,0.79-5.89,0.9-8.82,0.34
	c2.56,7.96,9.89,13.41,18.25,13.57c-6.92,5.44-15.47,8.39-24.27,8.37c-1.56,0-3.11-0.09-4.66-0.27c8.95,5.75,19.36,8.8,30,8.78"/>
</svg>
